<svg width="960" height="262" viewBox="0 0 960 262" fill="none" xmlns="http://www.w3.org/2000/svg">
<path d="M0.572344 80.5V1.53999H25.2923V14.62H13.7723V38.02H24.0923V51.1H13.7723V80.5H0.572344ZM47.6545 80.5L42.3745 49.06C42.2545 49.06 42.1345 49.18 42.0145 49.18V80.5H28.8145V1.53999H43.9345C53.4145 1.53999 58.3345 6.1 58.3345 14.26V33.82C58.3345 39.1 56.1745 42.82 52.8145 45.34L61.0945 80.5H47.6545ZM42.0145 14.62V37.18C44.0545 37.06 45.1345 35.86 45.1345 33.58V17.02C45.1345 15.46 44.5345 14.62 43.3345 14.62H42.0145ZM76.9702 81.7C66.7702 81.7 62.2102 77.62 62.2102 68.02V14.02C62.2102 4.42 66.7702 0.339995 76.9702 0.339995C87.1702 0.339995 91.7302 4.42 91.7302 14.02V68.02C91.7302 77.62 87.1702 81.7 76.9702 81.7ZM75.4102 15.22V66.82C75.4102 68.02 75.8902 68.62 76.9702 68.62C78.0502 68.62 78.5302 68.02 78.5302 66.82V15.22C78.5302 14.02 78.0502 13.42 76.9702 13.42C75.8902 13.42 75.4102 14.02 75.4102 15.22ZM95.4942 80.5V1.53999H108.214L116.614 47.14L114.694 1.53999H127.894V80.5H115.174L106.774 35.98L108.694 80.5H95.4942ZM136.265 80.5V14.62H130.265V1.53999H155.585V14.62H149.465V80.5H136.265ZM157.955 80.5V1.53999H182.675V14.62H171.155V32.74H181.475V45.7H171.155V67.42H182.675V80.5H157.955ZM184.397 80.5L191.837 41.02C189.317 27.7 185.717 14.86 184.397 1.53999H197.837C197.717 12.58 199.277 23.26 200.597 34.3L203.357 1.53999H216.797L209.357 41.02C211.877 54.34 215.477 67.18 216.797 80.5H203.357C203.477 69.46 201.917 58.78 200.597 47.74L197.837 80.5H184.397ZM233.072 80.5V1.53999H246.272V32.26H249.392V1.53999H262.592V80.5H249.392V45.34H246.272V80.5H233.072ZM264.671 80.5L270.671 1.53999H291.311L297.191 80.5H283.751L283.271 67.18H278.711L278.231 80.5H264.671ZM279.191 54.1H282.791L280.991 6.82L279.191 54.1ZM313.8 81.7C303.6 81.7 299.04 77.5 299.04 68.02V54.58H312.24V66.82C312.24 68.02 312.72 68.62 313.8 68.62C314.88 68.62 315.36 68.02 315.36 66.82V59.02C315.36 54.22 312.12 49.9 308.64 45.1C304.08 38.98 299.04 32.62 299.04 22.9V14.02C299.04 4.54 303.6 0.339995 313.8 0.339995C324 0.339995 328.56 4.42 328.56 14.02V28.18H315.36V15.22C315.36 14.02 314.88 13.42 313.8 13.42C312.72 13.42 312.24 14.02 312.24 15.22V23.86C312.24 28.66 315.48 32.86 318.96 37.66C323.52 43.78 328.56 50.26 328.56 59.98V68.02C328.56 77.62 324 81.7 313.8 81.7ZM350.835 80.5V14.62H344.835V1.53999H370.155V14.62H364.035V80.5H350.835ZM372.525 80.5V1.53999H385.725V32.26H388.845V1.53999H402.045V80.5H388.845V45.34H385.725V80.5H372.525ZM405.924 80.5V1.53999H430.644V14.62H419.124V32.74H429.444V45.7H419.124V67.42H430.644V80.5H405.924ZM467.186 80.5L461.906 49.06C461.786 49.06 461.666 49.18 461.546 49.18V80.5H448.346V1.53999H463.466C472.946 1.53999 477.866 6.1 477.866 14.26V33.82C477.866 39.1 475.706 42.82 472.346 45.34L480.626 80.5H467.186ZM461.546 14.62V37.18C463.586 37.06 464.666 35.86 464.666 33.58V17.02C464.666 15.46 464.066 14.62 462.866 14.62H461.546ZM481.861 80.5V1.53999H506.581V14.62H495.061V32.74H505.381V45.7H495.061V67.42H506.581V80.5H481.861ZM524.504 81.7C514.304 81.7 509.744 77.5 509.744 68.02V54.58H522.944V66.82C522.944 68.02 523.424 68.62 524.504 68.62C525.584 68.62 526.064 68.02 526.064 66.82V59.02C526.064 54.22 522.824 49.9 519.344 45.1C514.784 38.98 509.744 32.62 509.744 22.9V14.02C509.744 4.54 514.304 0.339995 524.504 0.339995C534.704 0.339995 539.264 4.42 539.264 14.02V28.18H526.064V15.22C526.064 14.02 525.584 13.42 524.504 13.42C523.424 13.42 522.944 14.02 522.944 15.22V23.86C522.944 28.66 526.184 32.86 529.664 37.66C534.224 43.78 539.264 50.26 539.264 59.98V68.02C539.264 77.62 534.704 81.7 524.504 81.7ZM542.799 80.5V1.53999H557.919C567.399 1.53999 572.319 6.1 572.319 14.26V44.38C572.319 54.1 566.079 59.38 555.999 60.7V80.5H542.799ZM555.999 14.62V46.78C558.039 46.66 559.119 45.46 559.119 43.18V17.02C559.119 15.46 558.519 14.62 557.319 14.62H555.999ZM590.486 81.7C580.286 81.7 575.726 77.62 575.726 68.02V14.02C575.726 4.42 580.286 0.339995 590.486 0.339995C600.686 0.339995 605.246 4.42 605.246 14.02V68.02C605.246 77.62 600.686 81.7 590.486 81.7ZM588.926 15.22V66.82C588.926 68.02 589.406 68.62 590.486 68.62C591.566 68.62 592.046 68.02 592.046 66.82V15.22C592.046 14.02 591.566 13.42 590.486 13.42C589.406 13.42 588.926 14.02 588.926 15.22ZM609.01 80.5V1.53999H621.73L630.13 47.14L628.21 1.53999H641.41V80.5H628.69L620.29 35.98L622.21 80.5H609.01ZM659.621 81.7C649.421 81.7 644.861 77.5 644.861 68.02V54.58H658.061V66.82C658.061 68.02 658.541 68.62 659.621 68.62C660.701 68.62 661.181 68.02 661.181 66.82V59.02C661.181 54.22 657.941 49.9 654.461 45.1C649.901 38.98 644.861 32.62 644.861 22.9V14.02C644.861 4.54 649.421 0.339995 659.621 0.339995C669.821 0.339995 674.381 4.42 674.381 14.02V28.18H661.181V15.22C661.181 14.02 660.701 13.42 659.621 13.42C658.541 13.42 658.061 14.02 658.061 15.22V23.86C658.061 28.66 661.301 32.86 664.781 37.66C669.341 43.78 674.381 50.26 674.381 59.98V68.02C674.381 77.62 669.821 81.7 659.621 81.7ZM677.916 80.5V1.53999H691.116V80.5H677.916ZM694.908 80.5V1.53999H710.988C719.988 1.53999 724.428 5.74 724.428 14.26V24.46C724.428 31.06 721.068 34.78 714.468 35.62C721.068 36.58 724.428 40.06 724.428 45.94V67.78C724.428 76.3 719.988 80.5 710.988 80.5H694.908ZM708.108 67.42H709.188C710.508 67.42 711.228 66.58 711.228 65.02V44.86C711.228 43.3 710.508 42.46 709.188 42.46H708.108V67.42ZM708.108 14.62V34.78C710.148 34.78 711.228 33.7 711.228 31.42V17.02C711.228 15.46 710.508 14.62 709.188 14.62H708.108ZM728.19 80.5V1.53999H741.39V80.5H728.19ZM745.182 1.53999H758.382V67.42H768.942V80.5H745.182V1.53999ZM771.197 80.5V1.53999H784.397V80.5H771.197ZM792.75 80.5V14.62H786.75V1.53999H812.07V14.62H805.95V80.5H792.75ZM844.56 1.53999L835.2 57.22V80.5H822V57.22L812.64 1.53999H825.84L828.6 41.86L831.36 1.53999H844.56ZM859.046 80.5L865.046 1.53999H885.686L891.566 80.5H878.126L877.646 67.18H873.086L872.606 80.5H859.046ZM873.566 54.1H877.166L875.366 6.82L873.566 54.1ZM893.775 80.5V1.53999H906.495L914.895 47.14L912.975 1.53999H926.175V80.5H913.455L905.055 35.98L906.975 80.5H893.775ZM929.986 80.5V1.53999H946.066C955.066 1.53999 959.506 5.74 959.506 14.26V67.78C959.506 76.3 955.066 80.5 946.066 80.5H929.986ZM943.186 67.42H944.266C945.586 67.42 946.306 66.58 946.306 65.02V17.02C946.306 15.46 945.586 14.62 944.266 14.62H943.186V67.42ZM66.8334 171.7C56.6334 171.7 52.0734 167.62 52.0734 158.02V104.02C52.0734 94.42 56.6334 90.34 66.8334 90.34C77.0334 90.34 81.5934 94.42 81.5934 104.02V126.34H68.3934V105.22C68.3934 104.02 67.9134 103.42 66.8334 103.42C65.7534 103.42 65.2734 104.02 65.2734 105.22V156.82C65.2734 158.02 65.7534 158.62 66.8334 158.62C67.9134 158.62 68.3934 158.02 68.3934 156.82V136.42H81.5934V158.02C81.5934 167.62 77.0334 171.7 66.8334 171.7ZM83.5575 170.5L89.5575 91.54H110.198L116.078 170.5H102.638L102.158 157.18H97.5975L97.1175 170.5H83.5575ZM98.0775 144.1H101.678L99.8775 96.82L98.0775 144.1ZM118.287 170.5V91.54H133.407C142.887 91.54 147.807 96.1 147.807 104.26V134.38C147.807 144.1 141.567 149.38 131.487 150.7V170.5H118.287ZM131.487 104.62V136.78C133.527 136.66 134.607 135.46 134.607 133.18V107.02C134.607 105.46 134.007 104.62 132.807 104.62H131.487ZM148.479 170.5L154.479 91.54H175.119L180.999 170.5H167.559L167.079 157.18H162.519L162.039 170.5H148.479ZM162.999 144.1H166.599L164.799 96.82L162.999 144.1ZM183.209 170.5V91.54H199.289C208.289 91.54 212.729 95.74 212.729 104.26V114.46C212.729 121.06 209.369 124.78 202.769 125.62C209.369 126.58 212.729 130.06 212.729 135.94V157.78C212.729 166.3 208.289 170.5 199.289 170.5H183.209ZM196.409 157.42H197.489C198.809 157.42 199.529 156.58 199.529 155.02V134.86C199.529 133.3 198.809 132.46 197.489 132.46H196.409V157.42ZM196.409 104.62V124.78C198.449 124.78 199.529 123.7 199.529 121.42V107.02C199.529 105.46 198.809 104.62 197.489 104.62H196.409ZM216.49 170.5V91.54H229.69V170.5H216.49ZM233.483 91.54H246.683V157.42H257.243V170.5H233.483V91.54ZM259.498 170.5V91.54H272.698V170.5H259.498ZM281.05 170.5V104.62H275.05V91.54H300.37V104.62H294.25V170.5H281.05ZM332.86 91.54L323.5 147.22V170.5H310.3V147.22L300.94 91.54H314.14L316.9 131.86L319.66 91.54H332.86ZM353.707 170.5V104.62H347.707V91.54H373.027V104.62H366.907V170.5H353.707ZM390.037 171.7C379.837 171.7 375.277 167.62 375.277 158.02V104.02C375.277 94.42 379.837 90.34 390.037 90.34C400.237 90.34 404.797 94.42 404.797 104.02V158.02C404.797 167.62 400.237 171.7 390.037 171.7ZM388.477 105.22V156.82C388.477 158.02 388.957 158.62 390.037 158.62C391.117 158.62 391.597 158.02 391.597 156.82V105.22C391.597 104.02 391.117 103.42 390.037 103.42C388.957 103.42 388.477 104.02 388.477 105.22ZM422.74 170.5V91.54H447.46V104.62H435.94V122.74H446.26V135.7H435.94V157.42H447.46V170.5H422.74ZM450.983 170.5V91.54H463.703L472.103 137.14L470.183 91.54H483.383V170.5H470.663L462.263 125.98L464.183 170.5H450.983ZM501.593 171.7C491.393 171.7 486.833 167.5 486.833 158.02V144.58H500.033V156.82C500.033 158.02 500.513 158.62 501.593 158.62C502.673 158.62 503.153 158.02 503.153 156.82V149.02C503.153 144.22 499.913 139.9 496.433 135.1C491.873 128.98 486.833 122.62 486.833 112.9V104.02C486.833 94.54 491.393 90.34 501.593 90.34C511.793 90.34 516.353 94.42 516.353 104.02V118.18H503.153V105.22C503.153 104.02 502.673 103.42 501.593 103.42C500.513 103.42 500.033 104.02 500.033 105.22V113.86C500.033 118.66 503.273 122.86 506.753 127.66C511.313 133.78 516.353 140.26 516.353 149.98V158.02C516.353 167.62 511.793 171.7 501.593 171.7ZM534.529 171.7C524.329 171.7 519.769 167.62 519.769 158.02V91.54H532.969V156.82C532.969 158.02 533.449 158.62 534.529 158.62C535.609 158.62 536.089 158.02 536.089 156.82V91.54H549.289V158.02C549.289 167.62 544.729 171.7 534.529 171.7ZM571.893 170.5L566.613 139.06C566.493 139.06 566.373 139.18 566.253 139.18V170.5H553.053V91.54H568.173C577.653 91.54 582.573 96.1 582.573 104.26V123.82C582.573 129.1 580.413 132.82 577.053 135.34L585.333 170.5H571.893ZM566.253 104.62V127.18C568.293 127.06 569.373 125.86 569.373 123.58V107.02C569.373 105.46 568.773 104.62 567.573 104.62H566.253ZM586.568 170.5V91.54H611.288V104.62H599.768V122.74H610.088V135.7H599.768V157.42H611.288V170.5H586.568ZM633.55 170.5V104.62H627.55V91.54H652.87V104.62H646.75V170.5H633.55ZM655.24 170.5V91.54H668.44V122.26H671.56V91.54H684.76V170.5H671.56V135.34H668.44V170.5H655.24ZM688.639 170.5V91.54H713.359V104.62H701.839V122.74H712.159V135.7H701.839V157.42H713.359V170.5H688.639ZM745.461 171.7C735.261 171.7 730.701 167.5 730.701 158.02V144.58H743.901V156.82C743.901 158.02 744.381 158.62 745.461 158.62C746.541 158.62 747.021 158.02 747.021 156.82V149.02C747.021 144.22 743.781 139.9 740.301 135.1C735.741 128.98 730.701 122.62 730.701 112.9V104.02C730.701 94.54 735.261 90.34 745.461 90.34C755.661 90.34 760.221 94.42 760.221 104.02V118.18H747.021V105.22C747.021 104.02 746.541 103.42 745.461 103.42C744.381 103.42 743.901 104.02 743.901 105.22V113.86C743.901 118.66 747.141 122.86 750.621 127.66C755.181 133.78 760.221 140.26 760.221 149.98V158.02C760.221 167.62 755.661 171.7 745.461 171.7ZM761.956 170.5L767.956 91.54H788.596L794.476 170.5H781.036L780.556 157.18H775.996L775.516 170.5H761.956ZM776.476 144.1H780.076L778.276 96.82L776.476 144.1ZM796.686 170.5V91.54H821.406V104.62H809.886V128.02H820.206V141.1H809.886V170.5H796.686ZM824.928 170.5V91.54H849.648V104.62H838.128V122.74H848.448V135.7H838.128V157.42H849.648V170.5H824.928ZM857.73 170.5V104.62H851.73V91.54H877.05V104.62H870.93V170.5H857.73ZM909.54 91.54L900.18 147.22V170.5H886.98V147.22L877.62 91.54H890.82L893.58 131.86L896.34 91.54H909.54ZM129.646 261.7C119.446 261.7 114.886 257.62 114.886 248.02V194.02C114.886 184.42 119.446 180.34 129.646 180.34C139.846 180.34 144.406 184.42 144.406 194.02V248.02C144.406 257.62 139.846 261.7 129.646 261.7ZM128.086 195.22V246.82C128.086 248.02 128.566 248.62 129.646 248.62C130.726 248.62 131.206 248.02 131.206 246.82V195.22C131.206 194.02 130.726 193.42 129.646 193.42C128.566 193.42 128.086 194.02 128.086 195.22ZM148.17 260.5V181.54H172.89V194.62H161.37V218.02H171.69V231.1H161.37V260.5H148.17ZM190.592 260.5V181.54H205.712C215.192 181.54 220.112 186.1 220.112 194.26V224.38C220.112 234.1 213.872 239.38 203.792 240.7V260.5H190.592ZM203.792 194.62V226.78C205.832 226.66 206.912 225.46 206.912 223.18V197.02C206.912 195.46 206.312 194.62 205.112 194.62H203.792ZM223.639 260.5V181.54H248.359V194.62H236.839V212.74H247.159V225.7H236.839V247.42H248.359V260.5H223.639ZM266.521 261.7C256.321 261.7 251.761 257.62 251.761 248.02V194.02C251.761 184.42 256.321 180.34 266.521 180.34C276.721 180.34 281.281 184.42 281.281 194.02V248.02C281.281 257.62 276.721 261.7 266.521 261.7ZM264.961 195.22V246.82C264.961 248.02 265.441 248.62 266.521 248.62C267.601 248.62 268.081 248.02 268.081 246.82V195.22C268.081 194.02 267.601 193.42 266.521 193.42C265.441 193.42 264.961 194.02 264.961 195.22ZM285.045 260.5V181.54H300.165C309.645 181.54 314.565 186.1 314.565 194.26V224.38C314.565 234.1 308.325 239.38 298.245 240.7V260.5H285.045ZM298.245 194.62V226.78C300.285 226.66 301.365 225.46 301.365 223.18V197.02C301.365 195.46 300.765 194.62 299.565 194.62H298.245ZM318.092 181.54H331.292V247.42H341.852V260.5H318.092V181.54ZM344.108 260.5V181.54H368.828V194.62H357.308V212.74H367.628V225.7H357.308V247.42H368.828V260.5H344.108ZM386.529 260.5V181.54H399.729V260.5H386.529ZM403.522 260.5V181.54H416.242L424.642 227.14L422.722 181.54H435.922V260.5H423.202L414.802 215.98L416.722 260.5H403.522ZM453.912 260.5V181.54H469.992C478.992 181.54 483.432 185.74 483.432 194.26V247.78C483.432 256.3 478.992 260.5 469.992 260.5H453.912ZM467.112 247.42H468.192C469.512 247.42 470.232 246.58 470.232 245.02V197.02C470.232 195.46 469.512 194.62 468.192 194.62H467.112V247.42ZM485.393 260.5L491.393 181.54H512.033L517.913 260.5H504.473L503.993 247.18H499.433L498.953 260.5H485.393ZM499.913 234.1H503.513L501.713 186.82L499.913 234.1ZM520.123 260.5V181.54H532.843L541.243 227.14L539.323 181.54H552.523V260.5H539.803L531.403 215.98L533.323 260.5H520.123ZM565.334 261.7C558.614 261.7 556.214 258.34 556.214 248.26V194.02C556.214 184.42 560.774 180.34 570.974 180.34C581.174 180.34 585.734 184.42 585.734 194.02V213.46H572.534V195.22C572.534 194.02 572.054 193.42 570.974 193.42C569.894 193.42 569.414 194.02 569.414 195.22V246.82C569.414 248.02 569.894 248.62 570.974 248.62C572.054 248.62 572.534 248.02 572.534 246.82V232.66H570.134L572.894 221.62H585.734V260.5H576.974L574.334 248.5C574.334 257.98 572.414 261.7 565.334 261.7ZM589.498 260.5V181.54H614.218V194.62H602.698V212.74H613.018V225.7H602.698V247.42H614.218V260.5H589.498ZM636.58 260.5L631.3 229.06C631.18 229.06 631.06 229.18 630.94 229.18V260.5H617.74V181.54H632.86C642.34 181.54 647.26 186.1 647.26 194.26V213.82C647.26 219.1 645.1 222.82 641.74 225.34L650.02 260.5H636.58ZM630.94 194.62V217.18C632.98 217.06 634.06 215.86 634.06 213.58V197.02C634.06 195.46 633.46 194.62 632.26 194.62H630.94ZM663.636 260.5L669.636 181.54H690.276L696.156 260.5H682.716L682.236 247.18H677.676L677.196 260.5H663.636ZM678.156 234.1H681.756L679.956 186.82L678.156 234.1ZM700.582 260.5V194.62H694.582V181.54H719.902V194.62H713.782V260.5H700.582ZM750.851 261.7C740.651 261.7 736.091 257.5 736.091 248.02V234.58H749.291V246.82C749.291 248.02 749.771 248.62 750.851 248.62C751.931 248.62 752.411 248.02 752.411 246.82V239.02C752.411 234.22 749.171 229.9 745.691 225.1C741.131 218.98 736.091 212.62 736.091 202.9V194.02C736.091 184.54 740.651 180.34 750.851 180.34C761.051 180.34 765.611 184.42 765.611 194.02V208.18H752.411V195.22C752.411 194.02 751.931 193.42 750.851 193.42C749.771 193.42 749.291 194.02 749.291 195.22V203.86C749.291 208.66 752.531 212.86 756.011 217.66C760.571 223.78 765.611 230.26 765.611 239.98V248.02C765.611 257.62 761.051 261.7 750.851 261.7ZM769.147 260.5V181.54H793.867V194.62H782.347V212.74H792.667V225.7H782.347V247.42H793.867V260.5H769.147ZM795.589 260.5L801.589 181.54H822.229L828.109 260.5H814.669L814.189 247.18H809.629L809.149 260.5H795.589ZM810.109 234.1H813.709L811.909 186.82L810.109 234.1ZM830.078 254.38C830.078 249.22 832.238 247.06 837.638 247.06C842.918 247.06 845.198 249.22 845.198 254.38C845.198 259.54 842.918 261.7 837.638 261.7C832.238 261.7 830.078 259.54 830.078 254.38Z" fill="#202020"/>
</svg>
