<svg width="791" height="581" viewBox="0 0 791 581" fill="none" xmlns="http://www.w3.org/2000/svg">
<g>
<path d="M149.115 106.2C138.915 106.2 134.355 102.12 134.355 92.52V38.52C134.355 28.92 138.915 24.84 149.115 24.84C159.315 24.84 163.875 28.92 163.875 38.52V92.52C163.875 102.12 159.315 106.2 149.115 106.2ZM147.555 39.72V91.32C147.555 92.52 148.035 93.12 149.115 93.12C150.195 93.12 150.675 92.52 150.675 91.32V39.72C150.675 38.52 150.195 37.92 149.115 37.92C148.035 37.92 147.555 38.52 147.555 39.72ZM171.839 105L165.839 26.04H179.399L182.159 100.08L184.919 26.04H198.359L192.479 105H171.839ZM200.568 105V26.04H225.288V39.12H213.768V57.24H224.088V70.2H213.768V91.92H225.288V105H200.568ZM247.651 105L242.371 73.56C242.251 73.56 242.131 73.68 242.011 73.68V105H228.811V26.04H243.931C253.411 26.04 258.331 30.6 258.331 38.76V58.32C258.331 63.6 256.171 67.32 252.811 69.84L261.091 105H247.651ZM242.011 39.12V61.68C244.051 61.56 245.131 60.36 245.131 58.08V41.52C245.131 39.96 244.531 39.12 243.331 39.12H242.011ZM291.146 106.2C280.946 106.2 276.386 102.12 276.386 92.52V77.64H289.586V91.32C289.586 92.52 290.066 93.12 291.146 93.12C292.226 93.12 292.706 92.52 292.706 91.32V73.68C292.706 69.48 290.546 67.92 284.906 67.92V60.48C290.666 60.12 292.706 57.96 292.706 53.76V39.72C292.706 38.52 292.226 37.92 291.146 37.92C290.066 37.92 289.586 38.52 289.586 39.72V53.4H276.386V38.52C276.386 28.92 280.946 24.84 291.146 24.84C301.346 24.84 305.906 29.28 305.906 37.56V49.44C305.906 56.04 302.666 59.88 294.986 60.72C304.106 61.68 305.906 66.96 305.906 73.32V93.48C305.906 101.76 301.346 106.2 291.146 106.2ZM324.31 106.2C314.11 106.2 309.55 102.12 309.55 92.52V38.52C309.55 28.92 314.11 24.84 324.31 24.84C334.51 24.84 339.07 28.92 339.07 38.52V92.52C339.07 102.12 334.51 106.2 324.31 106.2ZM322.75 39.72V91.32C322.75 92.52 323.23 93.12 324.31 93.12C325.39 93.12 325.87 92.52 325.87 91.32V39.72C325.87 38.52 325.39 37.92 324.31 37.92C323.23 37.92 322.75 38.52 322.75 39.72ZM342.474 98.64C342.474 93.72 344.754 91.56 350.514 91.56C356.154 91.56 358.434 94.08 358.434 100.8C358.434 107.52 354.714 114.96 350.514 119.76L346.194 118.08L351.834 105.84C351.234 106.08 350.514 106.2 349.554 106.2C344.394 106.2 342.474 104.28 342.474 98.64ZM376.576 106.2C366.376 106.2 361.816 102.12 361.816 92.52V38.52C361.816 28.92 366.376 24.84 376.576 24.84C386.776 24.84 391.336 28.92 391.336 38.52V92.52C391.336 102.12 386.776 106.2 376.576 106.2ZM375.016 39.72V91.32C375.016 92.52 375.496 93.12 376.576 93.12C377.656 93.12 378.136 92.52 378.136 91.32V39.72C378.136 38.52 377.656 37.92 376.576 37.92C375.496 37.92 375.016 38.52 375.016 39.72ZM409.74 106.2C399.54 106.2 394.98 102.12 394.98 92.52V38.52C394.98 28.92 399.54 24.84 409.74 24.84C419.94 24.84 424.5 28.92 424.5 38.52V92.52C424.5 102.12 419.94 106.2 409.74 106.2ZM408.18 39.72V91.32C408.18 92.52 408.66 93.12 409.74 93.12C410.82 93.12 411.3 92.52 411.3 91.32V39.72C411.3 38.52 410.82 37.92 409.74 37.92C408.66 37.92 408.18 38.52 408.18 39.72ZM442.904 106.2C432.704 106.2 428.144 102.12 428.144 92.52V38.52C428.144 28.92 432.704 24.84 442.904 24.84C453.104 24.84 457.664 28.92 457.664 38.52V92.52C457.664 102.12 453.104 106.2 442.904 106.2ZM441.344 39.72V91.32C441.344 92.52 441.824 93.12 442.904 93.12C443.984 93.12 444.464 92.52 444.464 91.32V39.72C444.464 38.52 443.984 37.92 442.904 37.92C441.824 37.92 441.344 38.52 441.344 39.72ZM475.608 105V26.04H490.728C500.208 26.04 505.128 30.6 505.128 38.76V68.88C505.128 78.6 498.888 83.88 488.808 85.2V105H475.608ZM488.808 39.12V71.28C490.848 71.16 491.928 69.96 491.928 67.68V41.52C491.928 39.96 491.327 39.12 490.128 39.12H488.808ZM508.654 105V26.04H533.374V39.12H521.854V57.24H532.174V70.2H521.854V91.92H533.374V105H508.654ZM551.537 106.2C541.337 106.2 536.777 102.12 536.777 92.52V38.52C536.777 28.92 541.337 24.84 551.537 24.84C561.737 24.84 566.297 28.92 566.297 38.52V92.52C566.297 102.12 561.737 106.2 551.537 106.2ZM549.977 39.72V91.32C549.977 92.52 550.457 93.12 551.537 93.12C552.617 93.12 553.097 92.52 553.097 91.32V39.72C553.097 38.52 552.617 37.92 551.537 37.92C550.457 37.92 549.977 38.52 549.977 39.72ZM570.061 105V26.04H585.181C594.661 26.04 599.581 30.6 599.581 38.76V68.88C599.581 78.6 593.341 83.88 583.261 85.2V105H570.061ZM583.261 39.12V71.28C585.301 71.16 586.381 69.96 586.381 67.68V41.52C586.381 39.96 585.781 39.12 584.581 39.12H583.261ZM603.108 26.04H616.308V91.92H626.868V105H603.108V26.04ZM629.123 105V26.04H653.843V39.12H642.323V57.24H652.643V70.2H642.323V91.92H653.843V105H629.123ZM38.8356 196.2C28.6356 196.2 24.0756 192 24.0756 182.52V169.08H37.2756V181.32C37.2756 182.52 37.7556 183.12 38.8356 183.12C39.9156 183.12 40.3956 182.52 40.3956 181.32V173.52C40.3956 168.72 37.1556 164.4 33.6756 159.6C29.1156 153.48 24.0756 147.12 24.0756 137.4V128.52C24.0756 119.04 28.6356 114.84 38.8356 114.84C49.0356 114.84 53.5956 118.92 53.5956 128.52V142.68H40.3956V129.72C40.3956 128.52 39.9156 127.92 38.8356 127.92C37.7556 127.92 37.2756 128.52 37.2756 129.72V138.36C37.2756 143.16 40.5156 147.36 43.9956 152.16C48.5556 158.28 53.5956 164.76 53.5956 174.48V182.52C53.5956 192.12 49.0356 196.2 38.8356 196.2ZM57.1309 195V116.04H81.8509V129.12H70.3309V147.24H80.6509V160.2H70.3309V181.92H81.8509V195H57.1309ZM85.3731 195V116.04H110.093V129.12H98.5731V147.24H108.893V160.2H98.5731V181.92H110.093V195H85.3731ZM113.615 195V116.04H126.815V151.08L133.655 116.04H147.095L138.335 153.6L147.095 195H133.655L126.815 156.36V195H113.615ZM149.24 195V116.04H162.44V195H149.24ZM166.233 195V116.04H178.953L187.353 161.64L185.433 116.04H198.633V195H185.913L177.513 150.48L179.433 195H166.233ZM211.443 196.2C204.723 196.2 202.323 192.84 202.323 182.76V128.52C202.323 118.92 206.883 114.84 217.083 114.84C227.283 114.84 231.843 118.92 231.843 128.52V147.96H218.643V129.72C218.643 128.52 218.163 127.92 217.083 127.92C216.003 127.92 215.523 128.52 215.523 129.72V181.32C215.523 182.52 216.003 183.12 217.083 183.12C218.163 183.12 218.643 182.52 218.643 181.32V167.16H216.243L219.003 156.12H231.843V195H223.083L220.443 183C220.443 192.48 218.523 196.2 211.443 196.2ZM264.187 196.2C253.987 196.2 249.427 192 249.427 182.52V169.08H262.627V181.32C262.627 182.52 263.107 183.12 264.187 183.12C265.267 183.12 265.747 182.52 265.747 181.32V173.52C265.747 168.72 262.507 164.4 259.027 159.6C254.467 153.48 249.427 147.12 249.427 137.4V128.52C249.427 119.04 253.987 114.84 264.187 114.84C274.387 114.84 278.947 118.92 278.947 128.52V142.68H265.747V129.72C265.747 128.52 265.267 127.92 264.187 127.92C263.107 127.92 262.627 128.52 262.627 129.72V138.36C262.627 143.16 265.867 147.36 269.347 152.16C273.907 158.28 278.947 164.76 278.947 174.48V182.52C278.947 192.12 274.387 196.2 264.187 196.2ZM280.683 195L286.683 116.04H307.323L313.203 195H299.763L299.283 181.68H294.723L294.243 195H280.683ZM295.203 168.6H298.803L297.003 121.32L295.203 168.6ZM315.412 195V116.04H340.132V129.12H328.612V152.52H338.932V165.6H328.612V195H315.412ZM343.654 195V116.04H368.374V129.12H356.854V147.24H367.174V160.2H356.854V181.92H368.374V195H343.654ZM376.457 195V129.12H370.457V116.04H395.777V129.12H389.657V195H376.457ZM428.267 116.04L418.907 171.72V195H405.707V171.72L396.347 116.04H409.547L412.307 156.36L415.067 116.04H428.267ZM430.013 188.64C430.013 183.72 432.293 181.56 438.053 181.56C443.693 181.56 445.973 184.08 445.973 190.8C445.973 197.52 442.253 204.96 438.053 209.76L433.733 208.08L439.373 195.84C438.773 196.08 438.053 196.2 437.093 196.2C431.933 196.2 430.013 194.28 430.013 188.64ZM478.294 196.2C468.094 196.2 463.534 192.12 463.534 182.52V128.52C463.534 118.92 468.094 114.84 478.294 114.84C488.494 114.84 493.054 118.92 493.054 128.52V182.52C493.054 192.12 488.494 196.2 478.294 196.2ZM476.734 129.72V181.32C476.734 182.52 477.214 183.12 478.294 183.12C479.374 183.12 479.854 182.52 479.854 181.32V129.72C479.854 128.52 479.374 127.92 478.294 127.92C477.214 127.92 476.734 128.52 476.734 129.72ZM515.658 195L510.378 163.56C510.258 163.56 510.138 163.68 510.018 163.68V195H496.818V116.04H511.938C521.418 116.04 526.338 120.6 526.338 128.76V148.32C526.338 153.6 524.178 157.32 520.818 159.84L529.098 195H515.658ZM510.018 129.12V151.68C512.058 151.56 513.138 150.36 513.138 148.08V131.52C513.138 129.96 512.538 129.12 511.338 129.12H510.018ZM542.714 195L548.714 116.04H569.354L575.234 195H561.794L561.314 181.68H556.754L556.274 195H542.714ZM557.234 168.6H560.834L559.034 121.32L557.234 168.6ZM591.623 195V116.04H607.703C616.703 116.04 621.143 120.24 621.143 128.76V138.96C621.143 145.56 617.783 149.28 611.183 150.12C617.783 151.08 621.143 154.56 621.143 160.44V182.28C621.143 190.8 616.703 195 607.703 195H591.623ZM604.823 181.92H605.903C607.223 181.92 607.943 181.08 607.943 179.52V159.36C607.943 157.8 607.223 156.96 605.903 156.96H604.823V181.92ZM604.823 129.12V149.28C606.863 149.28 607.943 148.2 607.943 145.92V131.52C607.943 129.96 607.223 129.12 605.903 129.12H604.823ZM624.904 195V116.04H649.624V129.12H638.104V147.24H648.424V160.2H638.104V181.92H649.624V195H624.904ZM657.707 195V129.12H651.707V116.04H677.027V129.12H670.907V195H657.707ZM683.957 195V129.12H677.957V116.04H703.277V129.12H697.157V195H683.957ZM705.647 195V116.04H730.367V129.12H718.847V147.24H729.167V160.2H718.847V181.92H730.367V195H705.647ZM752.729 195L747.449 163.56C747.329 163.56 747.209 163.68 747.089 163.68V195H733.889V116.04H749.009C758.489 116.04 763.409 120.6 763.409 128.76V148.32C763.409 153.6 761.249 157.32 757.889 159.84L766.169 195H752.729ZM747.089 129.12V151.68C749.129 151.56 750.209 150.36 750.209 148.08V131.52C750.209 129.96 749.609 129.12 748.409 129.12H747.089ZM173.44 206.04H186.64V271.92H197.2V285H173.44V206.04ZM199.455 285V206.04H212.655V285H199.455ZM216.447 285V206.04H241.167V219.12H229.647V242.52H239.967V255.6H229.647V285H216.447ZM244.69 285V206.04H269.41V219.12H257.89V237.24H268.21V250.2H257.89V271.92H269.41V285H244.69ZM287.111 285V206.04H300.311V236.76H303.431V206.04H316.631V285H303.431V249.84H300.311V285H287.111ZM318.71 285L324.71 206.04H345.35L351.23 285H337.79L337.31 271.68H332.75L332.27 285H318.71ZM333.23 258.6H336.83L335.03 211.32L333.23 258.6ZM354.593 285L348.593 206.04H362.153L364.913 280.08L367.673 206.04H381.113L375.233 285H354.593ZM383.322 285V206.04H408.042V219.12H396.522V237.24H406.842V250.2H396.522V271.92H408.042V285H383.322ZM425.744 285V206.04H441.824C450.824 206.04 455.264 210.24 455.264 218.76V272.28C455.264 280.8 450.824 285 441.824 285H425.744ZM438.944 271.92H440.024C441.344 271.92 442.064 271.08 442.064 269.52V221.52C442.064 219.96 441.344 219.12 440.024 219.12H438.944V271.92ZM459.025 285V206.04H472.225V285H459.025ZM476.018 285V206.04H500.738V219.12H489.218V237.24H499.538V250.2H489.218V271.92H500.738V285H476.018ZM504.26 285V206.04H520.34C529.34 206.04 533.78 210.24 533.78 218.76V272.28C533.78 280.8 529.34 285 520.34 285H504.26ZM517.46 271.92H518.54C519.86 271.92 520.58 271.08 520.58 269.52V221.52C520.58 219.96 519.86 219.12 518.54 219.12H517.46V271.92ZM566.361 286.2C556.161 286.2 551.601 282.12 551.601 272.52V218.52C551.601 208.92 556.161 204.84 566.361 204.84C576.561 204.84 581.121 208.92 581.121 218.52V272.52C581.121 282.12 576.561 286.2 566.361 286.2ZM564.801 219.72V271.32C564.801 272.52 565.281 273.12 566.361 273.12C567.441 273.12 567.921 272.52 567.921 271.32V219.72C567.921 218.52 567.441 217.92 566.361 217.92C565.281 217.92 564.801 218.52 564.801 219.72ZM603.725 285L598.445 253.56C598.325 253.56 598.205 253.68 598.085 253.68V285H584.885V206.04H600.005C609.485 206.04 614.405 210.6 614.405 218.76V238.32C614.405 243.6 612.245 247.32 608.885 249.84L617.165 285H603.725ZM598.085 219.12V241.68C600.125 241.56 601.205 240.36 601.205 238.08V221.52C601.205 219.96 600.605 219.12 599.405 219.12H598.085ZM226.818 375V296.04H242.898C251.898 296.04 256.338 300.24 256.338 308.76V362.28C256.338 370.8 251.898 375 242.898 375H226.818ZM240.018 361.92H241.098C242.418 361.92 243.138 361.08 243.138 359.52V311.52C243.138 309.96 242.418 309.12 241.098 309.12H240.018V361.92ZM260.1 375V296.04H273.3V375H260.1ZM291.492 376.2C281.292 376.2 276.732 372 276.732 362.52V349.08H289.932V361.32C289.932 362.52 290.412 363.12 291.492 363.12C292.572 363.12 293.052 362.52 293.052 361.32V353.52C293.052 348.72 289.812 344.4 286.332 339.6C281.772 333.48 276.732 327.12 276.732 317.4V308.52C276.732 299.04 281.292 294.84 291.492 294.84C301.692 294.84 306.252 298.92 306.252 308.52V322.68H293.052V309.72C293.052 308.52 292.572 307.92 291.492 307.92C290.412 307.92 289.932 308.52 289.932 309.72V318.36C289.932 323.16 293.172 327.36 296.652 332.16C301.212 338.28 306.252 344.76 306.252 354.48V362.52C306.252 372.12 301.692 376.2 291.492 376.2ZM307.987 375L313.987 296.04H334.627L340.507 375H327.067L326.587 361.68H322.027L321.547 375H307.987ZM322.507 348.6H326.107L324.307 301.32L322.507 348.6ZM342.717 375V296.04H357.837C367.317 296.04 372.237 300.6 372.237 308.76V338.88C372.237 348.6 365.997 353.88 355.917 355.2V375H342.717ZM355.917 309.12V341.28C357.957 341.16 359.037 339.96 359.037 337.68V311.52C359.037 309.96 358.437 309.12 357.237 309.12H355.917ZM375.764 375V296.04H390.884C400.364 296.04 405.284 300.6 405.284 308.76V338.88C405.284 348.6 399.044 353.88 388.964 355.2V375H375.764ZM388.964 309.12V341.28C391.004 341.16 392.084 339.96 392.084 337.68V311.52C392.084 309.96 391.484 309.12 390.284 309.12H388.964ZM408.811 375V296.04H433.531V309.12H422.011V327.24H432.331V340.2H422.011V361.92H433.531V375H408.811ZM435.253 375L441.253 296.04H461.893L467.773 375H454.333L453.853 361.68H449.293L448.813 375H435.253ZM449.773 348.6H453.373L451.573 301.32L449.773 348.6ZM488.823 375L483.543 343.56C483.423 343.56 483.303 343.68 483.183 343.68V375H469.983V296.04H485.103C494.583 296.04 499.503 300.6 499.503 308.76V328.32C499.503 333.6 497.343 337.32 493.983 339.84L502.263 375H488.823ZM483.183 309.12V331.68C485.223 331.56 486.303 330.36 486.303 328.08V311.52C486.303 309.96 485.702 309.12 484.503 309.12H483.183ZM503.498 375V296.04H528.218V309.12H516.698V327.24H527.018V340.2H516.698V361.92H528.218V375H503.498ZM531.74 375V296.04H547.82C556.82 296.04 561.26 300.24 561.26 308.76V362.28C561.26 370.8 556.82 375 547.82 375H531.74ZM544.94 361.92H546.02C547.34 361.92 548.06 361.08 548.06 359.52V311.52C548.06 309.96 547.34 309.12 546.02 309.12H544.94V361.92ZM32.17 465V386.04H45.37V465H32.17ZM49.1622 465V386.04H61.8822L70.2822 431.64L68.3622 386.04H81.5622V465H68.8422L60.4422 420.48L62.3622 465H49.1622ZM104.113 465V399.12H98.1128V386.04H123.433V399.12H117.313V465H104.113ZM125.803 465V386.04H139.003V416.76H142.123V386.04H155.323V465H142.123V429.84H139.003V465H125.803ZM159.201 465V386.04H183.921V399.12H172.401V417.24H182.721V430.2H172.401V451.92H183.921V465H159.201ZM247.223 386.04V465H234.023L236.303 403.56L229.343 465H219.503L212.543 403.56L214.823 465H201.623V386.04H219.503L224.423 435.24L229.343 386.04H247.223ZM251.076 465V386.04H275.796V399.12H264.276V417.24H274.596V430.2H264.276V451.92H275.796V465H251.076ZM279.318 465V386.04H295.398C304.398 386.04 308.838 390.24 308.838 398.76V452.28C308.838 460.8 304.398 465 295.398 465H279.318ZM292.518 451.92H293.598C294.918 451.92 295.638 451.08 295.638 449.52V401.52C295.638 399.96 294.918 399.12 293.598 399.12H292.518V451.92ZM312.6 465V386.04H325.8V465H312.6ZM334.152 465V399.12H328.152V386.04H353.472V399.12H347.352V465H334.152ZM355.842 465V386.04H380.562V399.12H369.042V417.24H379.362V430.2H369.042V451.92H380.562V465H355.842ZM402.924 465L397.644 433.56C397.524 433.56 397.404 433.68 397.284 433.68V465H384.084V386.04H399.204C408.684 386.04 413.604 390.6 413.604 398.76V418.32C413.604 423.6 411.444 427.32 408.084 429.84L416.364 465H402.924ZM397.284 399.12V421.68C399.324 421.56 400.404 420.36 400.404 418.08V401.52C400.404 399.96 399.804 399.12 398.604 399.12H397.284ZM436.44 465L431.16 433.56C431.04 433.56 430.92 433.68 430.8 433.68V465H417.6V386.04H432.72C442.2 386.04 447.12 390.6 447.12 398.76V418.32C447.12 423.6 444.96 427.32 441.6 429.84L449.88 465H436.44ZM430.8 399.12V421.68C432.84 421.56 433.92 420.36 433.92 418.08V401.52C433.92 399.96 433.32 399.12 432.12 399.12H430.8ZM449.315 465L455.315 386.04H475.955L481.835 465H468.395L467.915 451.68H463.355L462.875 465H449.315ZM463.835 438.6H467.435L465.635 391.32L463.835 438.6ZM484.045 465V386.04H496.765L505.165 431.64L503.245 386.04H516.445V465H503.725L495.325 420.48L497.245 465H484.045ZM520.256 465V386.04H544.976V399.12H533.456V417.24H543.776V430.2H533.456V451.92H544.976V465H520.256ZM546.698 465L552.698 386.04H573.338L579.218 465H565.778L565.298 451.68H560.738L560.258 465H546.698ZM561.218 438.6H564.818L563.018 391.32L561.218 438.6ZM581.428 465V386.04H594.148L602.548 431.64L600.628 386.04H613.828V465H601.108L592.708 420.48L594.628 465H581.428ZM646.458 466.2C636.258 466.2 631.698 462.12 631.698 452.52V398.52C631.698 388.92 636.258 384.84 646.458 384.84C656.658 384.84 661.218 388.92 661.218 398.52V452.52C661.218 462.12 656.658 466.2 646.458 466.2ZM644.898 399.72V451.32C644.898 452.52 645.378 453.12 646.458 453.12C647.538 453.12 648.018 452.52 648.018 451.32V399.72C648.018 398.52 647.538 397.92 646.458 397.92C645.378 397.92 644.898 398.52 644.898 399.72ZM669.183 465L663.183 386.04H676.743L679.503 460.08L682.263 386.04H695.703L689.823 465H669.183ZM697.912 465V386.04H722.632V399.12H711.112V417.24H721.432V430.2H711.112V451.92H722.632V465H697.912ZM744.994 465L739.714 433.56C739.594 433.56 739.474 433.68 739.354 433.68V465H726.154V386.04H741.274C750.754 386.04 755.674 390.6 755.674 398.76V418.32C755.674 423.6 753.514 427.32 750.154 429.84L758.434 465H744.994ZM739.354 399.12V421.68C741.394 421.56 742.474 420.36 742.474 418.08V401.52C742.474 399.96 741.874 399.12 740.674 399.12H739.354ZM169.503 555V489.12H163.503V476.04H188.823V489.12H182.703V555H169.503ZM191.193 555V476.04H204.393V506.76H207.513V476.04H220.713V555H207.513V519.84H204.393V555H191.193ZM224.592 555V476.04H249.312V489.12H237.792V507.24H248.112V520.2H237.792V541.92H249.312V555H224.592ZM267.014 555V476.04H282.134C291.614 476.04 296.534 480.6 296.534 488.76V518.88C296.534 528.6 290.294 533.88 280.214 535.2V555H267.014ZM280.214 489.12V521.28C282.254 521.16 283.334 519.96 283.334 517.68V491.52C283.334 489.96 282.734 489.12 281.534 489.12H280.214ZM297.206 555L303.206 476.04H323.846L329.726 555H316.286L315.806 541.68H311.246L310.766 555H297.206ZM311.726 528.6H315.326L313.526 481.32L311.726 528.6ZM346.336 556.2C336.136 556.2 331.576 552 331.576 542.52V529.08H344.776V541.32C344.776 542.52 345.256 543.12 346.336 543.12C347.416 543.12 347.896 542.52 347.896 541.32V533.52C347.896 528.72 344.656 524.4 341.176 519.6C336.616 513.48 331.576 507.12 331.576 497.4V488.52C331.576 479.04 336.136 474.84 346.336 474.84C356.536 474.84 361.096 478.92 361.096 488.52V502.68H347.896V489.72C347.896 488.52 347.416 487.92 346.336 487.92C345.256 487.92 344.776 488.52 344.776 489.72V498.36C344.776 503.16 348.016 507.36 351.496 512.16C356.056 518.28 361.096 524.76 361.096 534.48V542.52C361.096 552.12 356.536 556.2 346.336 556.2ZM369.191 555V489.12H363.191V476.04H388.511V489.12H382.391V555H369.191ZM405.061 555V476.04H421.141C430.141 476.04 434.581 480.24 434.581 488.76V542.28C434.581 550.8 430.141 555 421.141 555H405.061ZM418.261 541.92H419.341C420.661 541.92 421.381 541.08 421.381 539.52V491.52C421.381 489.96 420.661 489.12 419.341 489.12H418.261V541.92ZM438.342 555V476.04H463.062V489.12H451.542V507.24H461.862V520.2H451.542V541.92H463.062V555H438.342ZM481.224 556.2C471.024 556.2 466.464 552.12 466.464 542.52V488.52C466.464 478.92 471.024 474.84 481.224 474.84C491.424 474.84 495.984 478.92 495.984 488.52V510.84H482.784V489.72C482.784 488.52 482.304 487.92 481.224 487.92C480.144 487.92 479.664 488.52 479.664 489.72V541.32C479.664 542.52 480.144 543.12 481.224 543.12C482.304 543.12 482.784 542.52 482.784 541.32V520.92H495.984V542.52C495.984 552.12 491.424 556.2 481.224 556.2ZM497.948 555L503.948 476.04H524.588L530.468 555H517.028L516.548 541.68H511.988L511.508 555H497.948ZM512.468 528.6H516.068L514.268 481.32L512.468 528.6ZM532.678 555V476.04H548.758C557.758 476.04 562.198 480.24 562.198 488.76V542.28C562.198 550.8 557.758 555 548.758 555H532.678ZM545.878 541.92H546.958C548.278 541.92 548.998 541.08 548.998 539.52V491.52C548.998 489.96 548.278 489.12 546.958 489.12H545.878V541.92ZM565.959 555V476.04H590.679V489.12H579.159V507.24H589.479V520.2H579.159V541.92H590.679V555H565.959ZM593.961 548.88C593.961 543.72 596.121 541.56 601.521 541.56C606.801 541.56 609.081 543.72 609.081 548.88C609.081 554.04 606.801 556.2 601.521 556.2C596.121 556.2 593.961 554.04 593.961 548.88Z" fill="#202020"/>
</g>
</svg>
