<svg width="373" height="598" viewBox="0 0 373 598" fill="none" xmlns="http://www.w3.org/2000/svg">
<g>
<path d="M121.399 25.36V78H112.599L114.119 37.04L109.479 78H102.919L98.279 37.04L99.799 78H90.999V25.36H102.919L106.199 58.16L109.479 25.36H121.399ZM133.728 78.8C126.928 78.8 123.888 76.08 123.888 69.68V33.68C123.888 27.28 126.928 24.56 133.728 24.56C140.528 24.56 143.568 27.28 143.568 33.68V69.68C143.568 76.08 140.528 78.8 133.728 78.8ZM132.688 34.48V68.88C132.688 69.68 133.008 70.08 133.728 70.08C134.448 70.08 134.768 69.68 134.768 68.88V34.48C134.768 33.68 134.448 33.28 133.728 33.28C133.008 33.28 132.688 33.68 132.688 34.48ZM158.637 78L155.117 57.04C155.037 57.04 154.957 57.12 154.877 57.12V78H146.077V25.36H156.157C162.477 25.36 165.757 28.4 165.757 33.84V46.88C165.757 50.4 164.317 52.88 162.077 54.56L167.597 78H158.637ZM154.877 34.08V49.12C156.237 49.04 156.957 48.24 156.957 46.72V35.68C156.957 34.64 156.557 34.08 155.757 34.08H154.877ZM168.421 78V25.36H184.901V34.08H177.221V46.16H184.101V54.8H177.221V69.28H184.901V78H168.421ZM199.742 78V34.08H195.742V25.36H212.622V34.08H208.542V78H199.742ZM214.202 78V25.36H223.002V45.84H225.082V25.36H233.882V78H225.082V54.56H223.002V78H214.202ZM235.268 78L239.268 25.36H253.028L256.948 78H247.988L247.668 69.12H244.628L244.308 78H235.268ZM244.948 60.4H247.348L246.148 28.88L244.948 60.4ZM258.421 78V25.36H266.901L272.501 55.76L271.221 25.36H280.021V78H271.541L265.941 48.32L267.221 78H258.421ZM69.5871 133.8C62.7871 133.8 59.7471 131.08 59.7471 124.68V114.76H68.5471V123.88C68.5471 124.68 68.8671 125.08 69.5871 125.08C70.3071 125.08 70.6271 124.68 70.6271 123.88V112.12C70.6271 109.32 69.1871 108.28 65.4271 108.28V103.32C69.2671 103.08 70.6271 101.64 70.6271 98.84V89.48C70.6271 88.68 70.3071 88.28 69.5871 88.28C68.8671 88.28 68.5471 88.68 68.5471 89.48V98.6H59.7471V88.68C59.7471 82.28 62.7871 79.56 69.5871 79.56C76.3871 79.56 79.4271 82.52 79.4271 88.04V95.96C79.4271 100.36 77.2671 102.92 72.1471 103.48C78.2271 104.12 79.4271 107.64 79.4271 111.88V125.32C79.4271 130.84 76.3871 133.8 69.5871 133.8ZM91.6965 133.8C84.8965 133.8 81.8565 131.08 81.8565 124.68V88.68C81.8565 82.28 84.8965 79.56 91.6965 79.56C98.4965 79.56 101.536 82.28 101.536 88.68V124.68C101.536 131.08 98.4965 133.8 91.6965 133.8ZM90.6565 89.48V123.88C90.6565 124.68 90.9765 125.08 91.6965 125.08C92.4165 125.08 92.7365 124.68 92.7365 123.88V89.48C92.7365 88.68 92.4165 88.28 91.6965 88.28C90.9765 88.28 90.6565 88.68 90.6565 89.48ZM103.806 128.76C103.806 125.48 105.326 124.04 109.166 124.04C112.926 124.04 114.446 125.72 114.446 130.2C114.446 134.68 111.966 139.64 109.166 142.84L106.286 141.72L110.046 133.56C109.646 133.72 109.166 133.8 108.526 133.8C105.086 133.8 103.806 132.52 103.806 128.76ZM126.54 133.8C119.74 133.8 116.7 131.08 116.7 124.68V88.68C116.7 82.28 119.74 79.56 126.54 79.56C133.34 79.56 136.38 82.28 136.38 88.68V124.68C136.38 131.08 133.34 133.8 126.54 133.8ZM125.5 89.48V123.88C125.5 124.68 125.82 125.08 126.54 125.08C127.26 125.08 127.58 124.68 127.58 123.88V89.48C127.58 88.68 127.26 88.28 126.54 88.28C125.82 88.28 125.5 88.68 125.5 89.48ZM148.65 133.8C141.85 133.8 138.81 131.08 138.81 124.68V88.68C138.81 82.28 141.85 79.56 148.65 79.56C155.45 79.56 158.49 82.28 158.49 88.68V124.68C158.49 131.08 155.45 133.8 148.65 133.8ZM147.61 89.48V123.88C147.61 124.68 147.93 125.08 148.65 125.08C149.37 125.08 149.69 124.68 149.69 123.88V89.48C149.69 88.68 149.37 88.28 148.65 88.28C147.93 88.28 147.61 88.68 147.61 89.48ZM170.759 133.8C163.959 133.8 160.919 131.08 160.919 124.68V88.68C160.919 82.28 163.959 79.56 170.759 79.56C177.559 79.56 180.599 82.28 180.599 88.68V124.68C180.599 131.08 177.559 133.8 170.759 133.8ZM169.719 89.48V123.88C169.719 124.68 170.039 125.08 170.759 125.08C171.479 125.08 171.799 124.68 171.799 123.88V89.48C171.799 88.68 171.479 88.28 170.759 88.28C170.039 88.28 169.719 88.68 169.719 89.48ZM192.561 133V80.36H202.641C208.961 80.36 212.241 83.4 212.241 88.84V108.92C212.241 115.4 208.081 118.92 201.361 119.8V133H192.561ZM201.361 89.08V110.52C202.721 110.44 203.441 109.64 203.441 108.12V90.68C203.441 89.64 203.041 89.08 202.241 89.08H201.361ZM214.593 133V80.36H231.073V89.08H223.393V101.16H230.273V109.8H223.393V124.28H231.073V133H214.593ZM243.181 133.8C236.381 133.8 233.341 131.08 233.341 124.68V88.68C233.341 82.28 236.381 79.56 243.181 79.56C249.981 79.56 253.021 82.28 253.021 88.68V124.68C253.021 131.08 249.981 133.8 243.181 133.8ZM242.141 89.48V123.88C242.141 124.68 242.461 125.08 243.181 125.08C243.901 125.08 244.221 124.68 244.221 123.88V89.48C244.221 88.68 243.901 88.28 243.181 88.28C242.461 88.28 242.141 88.68 242.141 89.48ZM255.53 133V80.36H265.61C271.93 80.36 275.21 83.4 275.21 88.84V108.92C275.21 115.4 271.05 118.92 264.33 119.8V133H255.53ZM264.33 89.08V110.52C265.69 110.44 266.41 109.64 266.41 108.12V90.68C266.41 89.64 266.01 89.08 265.21 89.08H264.33ZM277.561 80.36H286.361V124.28H293.401V133H277.561V80.36ZM294.905 133V80.36H311.385V89.08H303.705V101.16H310.585V109.8H303.705V124.28H311.385V133H294.905ZM34.1146 188.8C27.3146 188.8 24.2746 186 24.2746 179.68V170.72H33.0746V178.88C33.0746 179.68 33.3946 180.08 34.1146 180.08C34.8346 180.08 35.1546 179.68 35.1546 178.88V173.68C35.1546 170.48 32.9946 167.6 30.6746 164.4C27.6346 160.32 24.2746 156.08 24.2746 149.6V143.68C24.2746 137.36 27.3146 134.56 34.1146 134.56C40.9146 134.56 43.9546 137.28 43.9546 143.68V153.12H35.1546V144.48C35.1546 143.68 34.8346 143.28 34.1146 143.28C33.3946 143.28 33.0746 143.68 33.0746 144.48V150.24C33.0746 153.44 35.2346 156.24 37.5546 159.44C40.5946 163.52 43.9546 167.84 43.9546 174.32V179.68C43.9546 186.08 40.9146 188.8 34.1146 188.8ZM46.3115 188V135.36H62.7915V144.08H55.1115V156.16H61.9915V164.8H55.1115V179.28H62.7915V188H46.3115ZM65.1396 188V135.36H81.6196V144.08H73.9396V156.16H80.8196V164.8H73.9396V179.28H81.6196V188H65.1396ZM83.9677 188V135.36H92.7677V158.72L97.3277 135.36H106.288L100.448 160.4L106.288 188H97.3277L92.7677 162.24V188H83.9677ZM107.718 188V135.36H116.518V188H107.718ZM119.046 188V135.36H127.526L133.126 165.76L131.846 135.36H140.646V188H132.166L126.566 158.32L127.846 188H119.046ZM149.186 188.8C144.706 188.8 143.106 186.56 143.106 179.84V143.68C143.106 137.28 146.146 134.56 152.946 134.56C159.746 134.56 162.786 137.28 162.786 143.68V156.64H153.986V144.48C153.986 143.68 153.666 143.28 152.946 143.28C152.226 143.28 151.906 143.68 151.906 144.48V178.88C151.906 179.68 152.226 180.08 152.946 180.08C153.666 180.08 153.986 179.68 153.986 178.88V169.44H152.386L154.226 162.08H162.786V188H156.946L155.186 180C155.186 186.32 153.906 188.8 149.186 188.8ZM184.349 188.8C177.549 188.8 174.509 186 174.509 179.68V170.72H183.309V178.88C183.309 179.68 183.629 180.08 184.349 180.08C185.069 180.08 185.389 179.68 185.389 178.88V173.68C185.389 170.48 183.229 167.6 180.909 164.4C177.869 160.32 174.509 156.08 174.509 149.6V143.68C174.509 137.36 177.549 134.56 184.349 134.56C191.149 134.56 194.189 137.28 194.189 143.68V153.12H185.389V144.48C185.389 143.68 185.069 143.28 184.349 143.28C183.629 143.28 183.309 143.68 183.309 144.48V150.24C183.309 153.44 185.469 156.24 187.789 159.44C190.829 163.52 194.189 167.84 194.189 174.32V179.68C194.189 186.08 191.149 188.8 184.349 188.8ZM195.346 188L199.346 135.36H213.106L217.026 188H208.066L207.746 179.12H204.706L204.386 188H195.346ZM205.026 170.4H207.426L206.226 138.88L205.026 170.4ZM218.499 188V135.36H234.979V144.08H227.299V159.68H234.179V168.4H227.299V188H218.499ZM237.327 188V135.36H253.807V144.08H246.127V156.16H253.007V164.8H246.127V179.28H253.807V188H237.327ZM259.195 188V144.08H255.195V135.36H272.075V144.08H267.995V188H259.195ZM293.735 135.36L287.495 172.48V188H278.695V172.48L272.455 135.36H281.255L283.095 162.24L284.935 135.36H293.735ZM314.353 188.8C307.553 188.8 304.513 186.08 304.513 179.68V143.68C304.513 137.28 307.553 134.56 314.353 134.56C321.153 134.56 324.193 137.28 324.193 143.68V179.68C324.193 186.08 321.153 188.8 314.353 188.8ZM313.313 144.48V178.88C313.313 179.68 313.633 180.08 314.353 180.08C315.073 180.08 315.393 179.68 315.393 178.88V144.48C315.393 143.68 315.073 143.28 314.353 143.28C313.633 143.28 313.313 143.68 313.313 144.48ZM339.262 188L335.742 167.04C335.662 167.04 335.582 167.12 335.502 167.12V188H326.702V135.36H336.782C343.102 135.36 346.382 138.4 346.382 143.84V156.88C346.382 160.4 344.942 162.88 342.702 164.56L348.222 188H339.262ZM335.502 144.08V159.12C336.862 159.04 337.582 158.24 337.582 156.72V145.68C337.582 144.64 337.182 144.08 336.382 144.08H335.502ZM73.3927 243L77.3927 190.36H91.1527L95.0727 243H86.1127L85.7927 234.12H82.7527L82.4327 243H73.3927ZM83.0727 225.4H85.4727L84.2727 193.88L83.0727 225.4ZM105.999 243V190.36H116.719C122.719 190.36 125.679 193.16 125.679 198.84V205.64C125.679 210.04 123.439 212.52 119.039 213.08C123.439 213.72 125.679 216.04 125.679 219.96V234.52C125.679 240.2 122.719 243 116.719 243H105.999ZM114.799 234.28H115.519C116.399 234.28 116.879 233.72 116.879 232.68V219.24C116.879 218.2 116.399 217.64 115.519 217.64H114.799V234.28ZM114.799 199.08V212.52C116.159 212.52 116.879 211.8 116.879 210.28V200.68C116.879 199.64 116.399 199.08 115.519 199.08H114.799ZM128.186 243V190.36H144.666V199.08H136.986V211.16H143.866V219.8H136.986V234.28H144.666V243H128.186ZM150.055 243V199.08H146.055V190.36H162.935V199.08H158.855V243H150.055ZM167.555 243V199.08H163.555V190.36H180.435V199.08H176.355V243H167.555ZM182.015 243V190.36H198.495V199.08H190.815V211.16H197.695V219.8H190.815V234.28H198.495V243H182.015ZM213.403 243L209.883 222.04C209.803 222.04 209.723 222.12 209.643 222.12V243H200.843V190.36H210.923C217.243 190.36 220.523 193.4 220.523 198.84V211.88C220.523 215.4 219.083 217.88 216.843 219.56L222.363 243H213.403ZM209.643 199.08V214.12C211.003 214.04 211.723 213.24 211.723 211.72V200.68C211.723 199.64 211.323 199.08 210.523 199.08H209.643ZM232.64 190.36H241.44V234.28H248.48V243H232.64V190.36ZM249.983 243V190.36H258.783V243H249.983ZM261.311 243V190.36H277.791V199.08H270.111V214.68H276.991V223.4H270.111V243H261.311ZM280.14 243V190.36H296.62V199.08H288.94V211.16H295.82V219.8H288.94V234.28H296.62V243H280.14ZM76.3506 298V245.36H85.1506V265.84H87.2306V245.36H96.0306V298H87.2306V274.56H85.1506V298H76.3506ZM97.4162 298L101.416 245.36H115.176L119.096 298H110.136L109.816 289.12H106.776L106.456 298H97.4162ZM107.096 280.4H109.496L108.296 248.88L107.096 280.4ZM121.338 298L117.338 245.36H126.378L128.218 294.72L130.058 245.36H139.018L135.098 298H121.338ZM140.491 298V245.36H156.971V254.08H149.291V266.16H156.171V274.8H149.291V289.28H156.971V298H140.491ZM168.772 298V245.36H179.492C185.492 245.36 188.452 248.16 188.452 253.84V289.52C188.452 295.2 185.492 298 179.492 298H168.772ZM177.572 289.28H178.292C179.172 289.28 179.652 288.72 179.652 287.68V255.68C179.652 254.64 179.172 254.08 178.292 254.08H177.572V289.28ZM190.96 298V245.36H199.76V298H190.96ZM202.288 298V245.36H218.768V254.08H211.088V266.16H217.968V274.8H211.088V289.28H218.768V298H202.288ZM221.116 298V245.36H231.836C237.836 245.36 240.796 248.16 240.796 253.84V289.52C240.796 295.2 237.836 298 231.836 298H221.116ZM229.916 289.28H230.636C231.516 289.28 231.996 288.72 231.996 287.68V255.68C231.996 254.64 231.516 254.08 230.636 254.08H229.916V289.28ZM262.517 298.8C255.717 298.8 252.677 296.08 252.677 289.68V253.68C252.677 247.28 255.717 244.56 262.517 244.56C269.317 244.56 272.357 247.28 272.357 253.68V289.68C272.357 296.08 269.317 298.8 262.517 298.8ZM261.477 254.48V288.88C261.477 289.68 261.797 290.08 262.517 290.08C263.237 290.08 263.557 289.68 263.557 288.88V254.48C263.557 253.68 263.237 253.28 262.517 253.28C261.797 253.28 261.477 253.68 261.477 254.48ZM287.426 298L283.906 277.04C283.826 277.04 283.746 277.12 283.666 277.12V298H274.866V245.36H284.946C291.266 245.36 294.546 248.4 294.546 253.84V266.88C294.546 270.4 293.106 272.88 290.866 274.56L296.386 298H287.426ZM283.666 254.08V269.12C285.026 269.04 285.746 268.24 285.746 266.72V255.68C285.746 254.64 285.346 254.08 284.546 254.08H283.666ZM74.0459 353V300.36H84.7659C90.7659 300.36 93.7259 303.16 93.7259 308.84V344.52C93.7259 350.2 90.7659 353 84.7659 353H74.0459ZM82.8459 344.28H83.5659C84.4459 344.28 84.9259 343.72 84.9259 342.68V310.68C84.9259 309.64 84.4459 309.08 83.5659 309.08H82.8459V344.28ZM96.2334 353V300.36H105.033V353H96.2334ZM117.161 353.8C110.361 353.8 107.321 351 107.321 344.68V335.72H116.121V343.88C116.121 344.68 116.441 345.08 117.161 345.08C117.881 345.08 118.201 344.68 118.201 343.88V338.68C118.201 335.48 116.041 332.6 113.721 329.4C110.681 325.32 107.321 321.08 107.321 314.6V308.68C107.321 302.36 110.361 299.56 117.161 299.56C123.961 299.56 127.001 302.28 127.001 308.68V318.12H118.201V309.48C118.201 308.68 117.881 308.28 117.161 308.28C116.441 308.28 116.121 308.68 116.121 309.48V315.24C116.121 318.44 118.281 321.24 120.601 324.44C123.641 328.52 127.001 332.84 127.001 339.32V344.68C127.001 351.08 123.961 353.8 117.161 353.8ZM128.158 353L132.158 300.36H145.918L149.838 353H140.878L140.558 344.12H137.518L137.198 353H128.158ZM137.838 335.4H140.238L139.038 303.88L137.838 335.4ZM151.311 353V300.36H161.391C167.711 300.36 170.991 303.4 170.991 308.84V328.92C170.991 335.4 166.831 338.92 160.111 339.8V353H151.311ZM160.111 309.08V330.52C161.471 330.44 162.191 329.64 162.191 328.12V310.68C162.191 309.64 161.791 309.08 160.991 309.08H160.111ZM173.343 353V300.36H183.423C189.743 300.36 193.023 303.4 193.023 308.84V328.92C193.023 335.4 188.863 338.92 182.143 339.8V353H173.343ZM182.143 309.08V330.52C183.503 330.44 184.223 329.64 184.223 328.12V310.68C184.223 309.64 183.823 309.08 183.023 309.08H182.143ZM195.374 353V300.36H211.854V309.08H204.174V321.16H211.054V329.8H204.174V344.28H211.854V353H195.374ZM213.002 353L217.002 300.36H230.762L234.682 353H225.722L225.402 344.12H222.362L222.042 353H213.002ZM222.682 335.4H225.082L223.882 303.88L222.682 335.4ZM248.715 353L245.195 332.04C245.115 332.04 245.035 332.12 244.955 332.12V353H236.155V300.36H246.235C252.555 300.36 255.835 303.4 255.835 308.84V321.88C255.835 325.4 254.395 327.88 252.155 329.56L257.675 353H248.715ZM244.955 309.08V324.12C246.315 324.04 247.035 323.24 247.035 321.72V310.68C247.035 309.64 246.635 309.08 245.835 309.08H244.955ZM258.499 353V300.36H274.979V309.08H267.299V321.16H274.179V329.8H267.299V344.28H274.979V353H258.499ZM277.327 353V300.36H288.047C294.047 300.36 297.007 303.16 297.007 308.84V344.52C297.007 350.2 294.047 353 288.047 353H277.327ZM286.127 344.28H286.847C287.727 344.28 288.207 343.72 288.207 342.68V310.68C288.207 309.64 287.727 309.08 286.847 309.08H286.127V344.28ZM139.749 408V355.36H148.549V408H139.749ZM151.077 408V355.36H159.557L165.157 385.76L163.877 355.36H172.677V408H164.197L158.597 378.32L159.877 408H151.077ZM178.258 408V364.08H174.258V355.36H191.138V364.08H187.058V408H178.258ZM192.718 408V355.36H201.518V375.84H203.598V355.36H212.398V408H203.598V384.56H201.518V408H192.718ZM214.983 408V355.36H231.463V364.08H223.783V376.16H230.663V384.8H223.783V399.28H231.463V408H214.983ZM78.5084 410.36V463H69.7084L71.2284 422.04L66.5884 463H60.0284L55.3884 422.04L56.9084 463H48.1084V410.36H60.0284L63.3084 443.16L66.5884 410.36H78.5084ZM81.0771 463V410.36H97.5571V419.08H89.8771V431.16H96.7571V439.8H89.8771V454.28H97.5571V463H81.0771ZM99.9052 463V410.36H110.625C116.625 410.36 119.585 413.16 119.585 418.84V454.52C119.585 460.2 116.625 463 110.625 463H99.9052ZM108.705 454.28H109.425C110.305 454.28 110.785 453.72 110.785 452.68V420.68C110.785 419.64 110.305 419.08 109.425 419.08H108.705V454.28ZM122.093 463V410.36H130.893V463H122.093ZM136.461 463V419.08H132.461V410.36H149.341V419.08H145.261V463H136.461ZM150.921 463V410.36H167.401V419.08H159.721V431.16H166.601V439.8H159.721V454.28H167.401V463H150.921ZM182.309 463L178.789 442.04C178.709 442.04 178.629 442.12 178.549 442.12V463H169.749V410.36H179.829C186.149 410.36 189.429 413.4 189.429 418.84V431.88C189.429 435.4 187.989 437.88 185.749 439.56L191.269 463H182.309ZM178.549 419.08V434.12C179.909 434.04 180.629 433.24 180.629 431.72V420.68C180.629 419.64 180.229 419.08 179.429 419.08H178.549ZM204.653 463L201.133 442.04C201.053 442.04 200.973 442.12 200.893 442.12V463H192.093V410.36H202.173C208.493 410.36 211.773 413.4 211.773 418.84V431.88C211.773 435.4 210.333 437.88 208.093 439.56L213.613 463H204.653ZM200.893 419.08V434.12C202.253 434.04 202.973 433.24 202.973 431.72V420.68C202.973 419.64 202.573 419.08 201.773 419.08H200.893ZM213.236 463L217.236 410.36H230.996L234.916 463H225.956L225.636 454.12H222.596L222.276 463H213.236ZM222.916 445.4H225.316L224.116 413.88L222.916 445.4ZM236.39 463V410.36H244.87L250.47 440.76L249.19 410.36H257.99V463H249.51L243.91 433.32L245.19 463H236.39ZM260.53 463V410.36H277.01V419.08H269.33V431.16H276.21V439.8H269.33V454.28H277.01V463H260.53ZM278.158 463L282.158 410.36H295.918L299.838 463H290.878L290.558 454.12H287.518L287.198 463H278.158ZM287.838 445.4H290.238L289.038 413.88L287.838 445.4ZM301.311 463V410.36H309.791L315.391 440.76L314.111 410.36H322.911V463H314.431L308.831 433.32L310.111 463H301.311ZM37.7084 518.8C30.9084 518.8 27.8684 516 27.8684 509.68V500.72H36.6684V508.88C36.6684 509.68 36.9884 510.08 37.7084 510.08C38.4284 510.08 38.7484 509.68 38.7484 508.88V503.68C38.7484 500.48 36.5884 497.6 34.2684 494.4C31.2284 490.32 27.8684 486.08 27.8684 479.6V473.68C27.8684 467.36 30.9084 464.56 37.7084 464.56C44.5084 464.56 47.5484 467.28 47.5484 473.68V483.12H38.7484V474.48C38.7484 473.68 38.4284 473.28 37.7084 473.28C36.9884 473.28 36.6684 473.68 36.6684 474.48V480.24C36.6684 483.44 38.8284 486.24 41.1484 489.44C44.1884 493.52 47.5484 497.84 47.5484 504.32V509.68C47.5484 516.08 44.5084 518.8 37.7084 518.8ZM49.9052 518V465.36H66.3852V474.08H58.7052V486.16H65.5852V494.8H58.7052V509.28H66.3852V518H49.9052ZM67.5334 518L71.5334 465.36H85.2934L89.2134 518H80.2534L79.9334 509.12H76.8934L76.5734 518H67.5334ZM77.2134 500.4H79.6134L78.4134 468.88L77.2134 500.4ZM109.9 518.8C103.1 518.8 100.06 516.08 100.06 509.68V473.68C100.06 467.28 103.1 464.56 109.9 464.56C116.7 464.56 119.74 467.28 119.74 473.68V509.68C119.74 516.08 116.7 518.8 109.9 518.8ZM108.86 474.48V508.88C108.86 509.68 109.18 510.08 109.9 510.08C110.62 510.08 110.94 509.68 110.94 508.88V474.48C110.94 473.68 110.62 473.28 109.9 473.28C109.18 473.28 108.86 473.68 108.86 474.48ZM125.049 518L121.049 465.36H130.089L131.929 514.72L133.769 465.36H142.729L138.809 518H125.049ZM144.202 518V465.36H160.682V474.08H153.002V486.16H159.882V494.8H153.002V509.28H160.682V518H144.202ZM175.59 518L172.07 497.04C171.99 497.04 171.91 497.12 171.83 497.12V518H163.03V465.36H173.11C179.43 465.36 182.71 468.4 182.71 473.84V486.88C182.71 490.4 181.27 492.88 179.03 494.56L184.55 518H175.59ZM171.83 474.08V489.12C173.19 489.04 173.91 488.24 173.91 486.72V475.68C173.91 474.64 173.51 474.08 172.71 474.08H171.83ZM197.867 518V474.08H193.867V465.36H210.747V474.08H206.667V518H197.867ZM212.327 518V465.36H221.127V485.84H223.207V465.36H232.007V518H223.207V494.56H221.127V518H212.327ZM234.593 518V465.36H251.073V474.08H243.393V486.16H250.273V494.8H243.393V509.28H251.073V518H234.593ZM262.874 518V465.36H272.954C279.274 465.36 282.554 468.4 282.554 473.84V493.92C282.554 500.4 278.394 503.92 271.674 504.8V518H262.874ZM271.674 474.08V495.52C273.034 495.44 273.754 494.64 273.754 493.12V475.68C273.754 474.64 273.354 474.08 272.554 474.08H271.674ZM283.002 518L287.002 465.36H300.762L304.682 518H295.722L295.402 509.12H292.362L292.042 518H283.002ZM292.682 500.4H295.082L293.882 468.88L292.682 500.4ZM315.755 518.8C308.955 518.8 305.915 516 305.915 509.68V500.72H314.715V508.88C314.715 509.68 315.035 510.08 315.755 510.08C316.475 510.08 316.795 509.68 316.795 508.88V503.68C316.795 500.48 314.635 497.6 312.315 494.4C309.275 490.32 305.915 486.08 305.915 479.6V473.68C305.915 467.36 308.955 464.56 315.755 464.56C322.555 464.56 325.595 467.28 325.595 473.68V483.12H316.795V474.48C316.795 473.68 316.475 473.28 315.755 473.28C315.035 473.28 314.715 473.68 314.715 474.48V480.24C314.715 483.44 316.875 486.24 319.195 489.44C322.235 493.52 325.595 497.84 325.595 504.32V509.68C325.595 516.08 322.555 518.8 315.755 518.8ZM330.992 518V474.08H326.992V465.36H343.872V474.08H339.792V518H330.992ZM112.835 573V520.36H123.555C129.555 520.36 132.515 523.16 132.515 528.84V564.52C132.515 570.2 129.555 573 123.555 573H112.835ZM121.635 564.28H122.355C123.235 564.28 123.715 563.72 123.715 562.68V530.68C123.715 529.64 123.235 529.08 122.355 529.08H121.635V564.28ZM135.022 573V520.36H151.502V529.08H143.822V541.16H150.702V549.8H143.822V564.28H151.502V573H135.022ZM163.611 573.8C156.811 573.8 153.771 571.08 153.771 564.68V528.68C153.771 522.28 156.811 519.56 163.611 519.56C170.411 519.56 173.451 522.28 173.451 528.68V543.56H164.651V529.48C164.651 528.68 164.331 528.28 163.611 528.28C162.891 528.28 162.571 528.68 162.571 529.48V563.88C162.571 564.68 162.891 565.08 163.611 565.08C164.331 565.08 164.651 564.68 164.651 563.88V550.28H173.451V564.68C173.451 571.08 170.411 573.8 163.611 573.8ZM174.76 573L178.76 520.36H192.52L196.44 573H187.48L187.16 564.12H184.12L183.8 573H174.76ZM184.44 555.4H186.84L185.64 523.88L184.44 555.4ZM197.913 573V520.36H208.633C214.633 520.36 217.593 523.16 217.593 528.84V564.52C217.593 570.2 214.633 573 208.633 573H197.913ZM206.713 564.28H207.433C208.313 564.28 208.793 563.72 208.793 562.68V530.68C208.793 529.64 208.313 529.08 207.433 529.08H206.713V564.28ZM220.101 573V520.36H236.581V529.08H228.901V541.16H235.781V549.8H228.901V564.28H236.581V573H220.101ZM238.769 568.92C238.769 565.48 240.209 564.04 243.809 564.04C247.329 564.04 248.849 565.48 248.849 568.92C248.849 572.36 247.329 573.8 243.809 573.8C240.209 573.8 238.769 572.36 238.769 568.92Z" fill="#202020"/>
</g>
</svg>
